<?xml version="1.0" standalone="no"?>
<!DOCTYPE svg PUBLIC "-//W3C//DTD SVG 20010904//EN"
 "http://www.w3.org/TR/2001/REC-SVG-20010904/DTD/svg10.dtd">
<svg version="1.0" xmlns="http://www.w3.org/2000/svg"
 width="1024.000000pt" height="1024.000000pt" viewBox="0 0 1024.000000 1024.000000"
 preserveAspectRatio="xMidYMid meet">
<metadata>
Created by potrace 1.14, written by Peter Selinger 2001-2017
</metadata>
<g transform="translate(0.000000,1024.000000) scale(0.100000,-0.100000)"
fill="#000000" stroke="none">
<path d="M3240 8035 l0 -95 -32 -1 c-121 -3 -417 -8 -605 -9 -122 -1 -230 -4
-241 -7 -17 -4 -21 -17 -27 -99 l-7 -94 -239 -1 c-131 -1 -257 -3 -279 -4 -22
-1 -61 -3 -86 -4 l-45 -1 2 -85 c1 -47 -1 -88 -4 -91 -3 -3 -61 -8 -128 -10
-75 -2 -125 -8 -130 -15 -3 -6 -7 -52 -8 -102 -1 -50 -4 -94 -7 -99 -3 -4 -66
-8 -140 -8 l-134 0 0 -100 0 -100 -125 0 -125 0 0 -1730 0 -1730 133 0 133 0
0 -47 c0 -27 1 -200 2 -385 l2 -338 125 0 125 0 0 -110 0 -109 138 -3 c101 -2
137 -6 138 -15 1 -7 2 -56 3 -108 l1 -95 105 0 105 0 0 -100 0 -100 215 0 215
0 0 -90 0 -90 125 0 125 0 0 -89 c0 -84 1 -89 23 -93 12 -2 100 -4 194 -3 108
0 173 -4 174 -10 1 -5 0 -61 -1 -122 l-1 -113 393 0 c216 -1 698 -3 1071 -6
l677 -5 0 131 0 130 108 1 c93 1 191 4 285 8 l27 1 0 100 0 100 115 0 115 0 0
80 0 80 200 0 c153 0 200 3 201 13 2 24 7 103 8 140 l1 37 145 0 144 0 3 103
3 102 128 3 127 3 0 119 0 120 255 0 255 0 0 -120 0 -120 615 0 c485 0 615 3
616 13 0 6 3 54 5 106 2 52 5 96 7 97 7 6 139 13 265 13 l142 1 0 115 0 115
63 1 c34 1 108 2 164 3 56 1 105 4 108 7 4 5 11 240 15 497 l0 32 120 0 120 0
0 1185 0 1185 -120 0 -120 0 0 225 0 225 -100 0 -100 0 -1 38 c-3 85 -7 133
-11 137 -5 6 -65 13 -115 14 l-33 1 0 110 0 110 -200 0 -200 0 0 110 0 110
-486 -4 c-267 -3 -487 -6 -489 -8 -2 -2 -6 -46 -9 -98 -2 -52 -5 -96 -5 -97
-1 -2 -57 -3 -126 -3 l-125 0 -1 28 c-2 88 -7 164 -12 168 -4 5 -93 11 -184
13 l-43 1 0 100 0 100 -130 0 -130 0 -1 38 c-1 20 -2 51 -4 67 -1 17 -3 47 -4
67 -1 30 -5 39 -23 43 -22 5 -144 13 -215 14 l-33 1 0 100 0 100 -335 0 -335
0 -1 33 c-1 17 -2 46 -4 62 -1 17 -3 47 -4 68 l-1 37 -440 0 -440 0 -1 28 c0
15 -2 41 -3 57 -1 17 -3 49 -4 73 l-2 42 -815 0 -815 0 0 -95z m4919 -2044 c9
-6 15 -30 16 -68 1 -32 3 -73 3 -90 l2 -33 130 0 130 0 1 -352 c0 -394 8
-1310 13 -1460 l2 -98 -133 0 -133 0 0 -105 0 -105 -496 0 -495 0 3 853 c2
468 4 945 6 1060 l3 207 189 0 190 0 0 100 0 100 278 0 c152 0 283 -4 291 -9z"/>
</g>
</svg>
